<?xml version="1.0" encoding="UTF-8" standalone="no"?>
<!-- Created with Inkscape (http://www.inkscape.org/) -->

<svg
   width="118.04591mm"
   height="124.50642mm"
   viewBox="0 0 118.04591 124.50642"
   version="1.1"
   id="svg5"
   inkscape:version="1.2.2 (732a01da63, 2022-12-09)"
   sodipodi:docname="nodeman.svg"
   xmlns:inkscape="http://www.inkscape.org/namespaces/inkscape"
   xmlns:sodipodi="http://sodipodi.sourceforge.net/DTD/sodipodi-0.dtd"
   xmlns="http://www.w3.org/2000/svg"
   xmlns:svg="http://www.w3.org/2000/svg">
  <sodipodi:namedview
     id="namedview7"
     pagecolor="#ffffff"
     bordercolor="#000000"
     borderopacity="0.25"
     inkscape:showpageshadow="2"
     inkscape:pageopacity="0.0"
     inkscape:pagecheckerboard="0"
     inkscape:deskcolor="#d1d1d1"
     inkscape:document-units="mm"
     showgrid="false"
     inkscape:zoom="1.07"
     inkscape:cx="190.18692"
     inkscape:cy="249.53271"
     inkscape:window-width="1920"
     inkscape:window-height="1017"
     inkscape:window-x="-8"
     inkscape:window-y="-8"
     inkscape:window-maximized="1"
     inkscape:current-layer="layer1" />
  <defs
     id="defs2" />
  <g
     inkscape:label="Layer 1"
     inkscape:groupmode="layer"
     id="layer1"
     transform="translate(-24.223122,-38.326934)">
    <path
       id="cape"
       style="fill:#ff0000;fill-opacity:1;stroke:#000000;stroke-width:0.765;stroke-dasharray:none;stroke-opacity:1"
       d="m 90.562948,89.30566 c -2.029808,0.0013 -4.135738,0.485687 -5.994983,0.949296 0,2.473978 -4.833927,3.847953 -14.094993,6.181781 -5.642238,0.521526 -11.501962,0.151479 -15.847882,-2.432656 0.110555,6.092019 0.93003,5.049046 2.495454,12.818339 3.429987,7.98541 11.042409,13.50989 18.669145,22.25446 6.338635,5.25963 4.096398,6.44895 11.839071,11.29801 6.102203,2.06793 9.08938,4.99404 16.2264,4.52789 3.17474,0.29163 8.98298,-0.95023 9.68985,-2.14819 4.46353,-2.25207 8.3285,-2.90591 14.20947,-2.45359 4.54061,-0.0207 1.31662,-6.27406 2.02106,-9.25163 0.89432,-4.35367 7.08142,-6.45248 10.29911,-8.7142 5.37691,-2.65238 -2.98584,-10.83992 -2.37194,-14.3769 2.5154,-1.72267 2.01212,-4.96226 -1.28778,-5.75986 -2.46288,-1.21632 -4.89002,-2.01605 -6.7753,-2.18436 -6.48128,-0.667016 -14.31573,-0.648338 -21.80228,-3.383772 -4.24661,-1.760304 -8.966357,-4.765981 -13.772807,-6.696233 -1.093206,-0.456191 -2.283711,-0.629169 -3.501595,-0.628385 z"
       inkscape:label="cape"
       sodipodi:nodetypes="sccccccccccccccccs" />
    <path
       id="body"
       style="fill:#fff158;fill-opacity:1;stroke:#000000;stroke-width:1.065;stroke-dasharray:none;stroke-opacity:1"
       d="m 51.765316,38.720634 c 0.838609,0.763733 7.39077,18.813252 1.140037,13.811764 -5.852705,-1.345061 -11.619915,-1.08456 -15.328296,0.356164 9.429367,3.029961 11.104239,7.87846 11.542363,10.00355 0.626107,3.662499 0.471527,8.353071 -1.80234,12.163405 -0.66391,2.635536 -0.807352,4.159838 -0.333416,11.237053 4.065369,6.163317 10.233038,10.440981 4.693007,7.395822 C 48.919189,90.520251 45.249272,83.954217 42.495914,80.906183 40.398179,77.108279 40.062241,75.3362 37.310506,71.589449 33.760037,68.258671 28.685702,64.236708 26.51253,67.718457 c -3.894689,5.03054 -0.547455,10.506917 2.481133,11.4249 9.79086,10.957429 9.904975,15.648079 12.737573,19.470449 3.283004,8.365294 2.747926,6.681044 3.827064,12.020214 1.262465,7.39159 1.31916,11.92536 4.183372,20.07015 2.501371,5.04268 4.208022,8.76858 8.846636,12.74381 4.97408,3.60844 5.862244,5.344 12.345367,8.81339 6.249571,2.47098 11.475633,5.6929 18.048918,6.51319 6.562911,1.78734 12.093167,2.12414 18.701817,3.5239 7.57116,0.0569 8.34753,-0.89314 13.38418,-1.9067 2.73875,-5.84273 -1.52574,-7.91752 -5.71922,-10.22989 -4.92929,-3.03314 -9.82327,-7.25982 -10.43175,-13.38892 -0.90273,-6.56387 -4.34393,-12.05259 -8.565728,-19.21222 -25.289443,-20.254738 5.432408,-0.72283 4.093118,2.13271 -3.56198,6.09754 4.81927,6.19498 9.31522,4.20442 5.01821,-5.04856 5.89591,-5.81054 5.63169,-10.68865 -0.7129,-4.27927 -4.80161,-8.37453 -10.72106,-11.53387 C 98.921404,98.542969 89.426423,96.244843 84.703879,90.814095 94.350979,79.181367 90.040603,73.60449 88.114655,70.719383 82.423989,62.63846 74.975644,49.70809 70.060027,45.801419 c -12.396705,-6.359165 -6.564595,-1.381975 -3.189683,4.945108 0.824205,1.285732 0.427073,2.01483 -0.288361,1.467854 z"
       sodipodi:nodetypes="sccccccccccccccccccccccccccccccs" />
    <path
       style="fill:#e41b1b;fill-opacity:1;stroke:#000000;stroke-width:0.465;stroke-dasharray:none;stroke-opacity:1"
       d="m 62.243963,74.35377 c -2.506581,0.780613 2.722123,-1.834511 2.888768,-1.909004 1.427453,-0.711252 2.164951,-1.015663 3.748239,-1.516369 2.819285,-0.646845 1.825077,-0.318855 3.187411,-0.728108 3.115193,-0.703473 3.713789,-0.782004 5.246705,-0.901451 3.030866,-0.387607 2.595756,-0.445431 6.221337,-0.810335 2.28858,-0.267993 2.135518,-0.16943 5.189121,-0.313987 1.066827,0.08195 2.308261,0.0033 1.801319,0.253447 -0.489027,1.253347 -1.200193,1.799778 -1.652278,3.141769 -0.762398,1.321562 -1.083431,2.004193 -1.459875,2.66597 -1.127667,1.24699 -1.22141,1.555541 -1.976597,2.261384 -0.876059,1.115363 -2.112265,2.110722 -3.194139,2.877913 -1.961601,1.404861 -3.880743,2.188127 -5.788476,2.908564 -2.836741,0.429974 -1.589606,0.355972 -4.031054,0.529917 -1.49322,-0.118214 -3.579767,-0.189838 -5.987964,-0.985685 -5.180186,-2.712289 -2.998165,-3.598298 -6.065581,-1.795454 -1.429581,1.229249 -2.302906,1.588113 -4.515773,2.312938 -1.492127,0.140908 -1.509502,0.179436 -3.702062,0.0013 -1.35677,-0.564803 -1.742757,-0.558032 -3.412513,-1.485189 -1.626973,-0.933826 -1.38993,-0.751348 -3.566024,-2.417913 -1.596538,-1.212847 -2.127635,-1.489859 -3.148302,-2.783882 -0.160941,-0.63758 -0.853834,-0.512991 -0.245876,-1.041769 1.751653,-0.75035 2.712051,-1.072762 3.829552,-1.611801 2.208138,-0.653346 3.347378,-1.166132 5.181597,-1.60041 2.014789,-0.238556 3.162129,-0.604185 5.321578,-0.670996 1.539972,0.305886 2.876098,0.462945 4.878022,2.292644 0.367064,0.834742 1.92231,1.160277 1.252865,1.326507 z"
       id="rims"
       sodipodi:nodetypes="ccccccccccccccccccccccccccc"
       inkscape:label="rims" />
    <path
       id="lenses"
       style="fill:#fefefe;fill-opacity:1;stroke:#000000;stroke-width:0.365;stroke-dasharray:none;stroke-opacity:1"
       d="m 85.393237,70.419991 c -0.3741,0.002 -0.961035,0.08014 -1.62574,0.108004 -0.781175,0.33062 -1.578025,0.227866 -2.416907,0.502811 -1.79248,0.265228 -3.434939,0.257016 -6.210474,0.823206 -1.418823,0.106865 -3.728533,0.743225 -5.182629,1.281059 -0.380986,0.0687 -1.977478,0.866449 -3.014577,1.534263 -1.471077,1.028794 -1.632245,1.420058 -2.693085,2.241734 -0.728527,0.424422 -0.648352,0.27397 1.389063,2.097029 1.046921,0.699878 2.110335,1.425107 3.09025,1.746147 2.887191,0.269626 3.114157,0.395965 5.178837,0.04855 0.820106,-0.192932 2.116121,-0.552959 2.853748,-0.93894 0.705202,-0.125244 1.367582,-0.571887 2.036568,-0.774113 1.238363,-0.899855 2.555205,-2.060842 3.209106,-2.711979 1.589628,-1.504976 2.743551,-3.29588 3.485576,-5.321122 0.325322,-0.438367 0.183089,-0.677654 -0.09974,-0.636649 z m -31.639412,2.052071 c -1.302879,-0.10932 -2.742438,0.325017 -3.424081,0.497643 -1.471603,0.53616 -3.02145,0.706898 -4.352189,1.199927 -0.663187,0.28913 -1.657417,0.904668 -2.371421,0.99164 0.787104,1.093028 1.884586,1.522171 2.903172,2.375596 1.059894,0.890165 2.051502,1.785131 3.260266,2.276347 1.247262,0.797096 2.833155,0.846968 4.00699,1.191142 1.029371,-0.197743 0.05515,0.03068 2.240174,-0.309025 1.915616,-0.640575 2.190009,-1.029748 3.688383,-2.09245 0.583516,-0.284687 1.869574,-1.363933 1.916443,-1.835993 -0.760854,-0.753208 -1.56104,-1.579382 -2.193479,-2.287384 -0.561106,-0.418876 -1.421645,-0.862308 -1.97557,-1.295177 -0.667494,-0.338551 -1.321045,-0.670361 -2.084462,-0.601854 -0.751091,-0.04113 -0.893167,-0.112793 -1.614226,-0.110412 z"
       sodipodi:nodetypes="cccccccccccccccccccccccccccscc"
       inkscape:label="lenses" />
    <path
       style="fill:#ff0000;fill-opacity:1;stroke:#000000;stroke-width:0.264583;stroke-opacity:1"
       d="m 57.866019,94.194795 c 1.044959,0.204953 2.9233,0.512549 3.991955,0.738738 0.791818,0.256678 1.55411,0.431109 2.845174,0.452825 0.971476,0.348341 1.904239,0.416335 3.566866,0.341334 1.492899,0.156511 2.224935,0.154439 3.444123,0.02669 3.563346,-0.611009 3.481163,-0.462054 5.187529,-0.980538 3.156735,-0.36441 4.560172,-1.757842 7.085421,-3.26985 0.551576,-1.923017 1.386046,0.846357 3.024792,1.70559 1.00237,1.617436 5.061646,1.186984 -0.654257,2.584434 -3.909834,1.138999 -3.359497,0.784595 -5.593165,1.369472 -3.589833,0.634085 -4.403607,0.730117 -4.736972,0.603017 -2.851966,0.01799 -2.535972,-0.269302 -5.375967,-0.544282 -2.649939,-1.052986 -1.603981,-0.431075 0.14166,0.924938 1.343035,1.834452 4.497302,3.268017 4.872709,3.482507 0.15642,0.93177 -0.04586,1.74229 -1.170306,1.72791 -2.940856,-1.31704 -3.948276,-2.2876 -5.009614,-3.649458 -1.708521,-2.241168 -0.894681,-3.236969 -2.026678,-2.866772 -0.70272,-0.03298 0.639857,1.486398 -0.695271,2.562852 -1.251457,0.963768 -1.234911,0.437005 -0.63806,3.987628 -3.298614,0.0988 -2.537948,-0.47471 -2.966204,-0.92384 0.03719,-1.43395 0.04478,-1.96357 0.915264,-3.162416 4.244956,-3.717812 -0.906602,-3.029443 -5.927044,-3.292268 -2.892476,-0.168401 -4.425064,-0.947984 -4.638978,-2.304323 -1.520578,-0.272499 3.478889,0.278561 4.357023,0.485812 z"
       id="capeTie"
       sodipodi:nodetypes="cccccccccccccccccccccccc"
       inkscape:label="capeTie" />
  </g>
</svg>
